# xmcd
# 
# Track frame offsets:
#     182
#     44185
#     71070
#     112855
#     155062
#     218097
#     240605
#     280017
# 
# Disc length: 4053
# 
# Revision: 15
# Processed by: cddbd v1.5.2PL0 Copyright (c) Steve Scherf et al.
# Submitted via: fre:ac v1.0.17
# 
DISCID=740fd308
DTITLE=Neil Young and Crazy Horse - Weld [CD2]
DYEAR=1991
DGENRE=Rock
TTITLE0=Cortez The Killer
TTITLE1=Powderfinger
TTITLE2=Love And Only Love
TTITLE3=Rockin' In The Free World
TTITLE4=Like A Hurricane
TTITLE5=Farmer John
TTITLE6=Tonight's The Night
TTITLE7=Roll Another Number
EXTD=LIVE!\nProduced by Neil Young and David Briggs with Billy Talbot\nCopyright 1991 Reprise Records\nReprise W2 26671 YEAR: 1991
EXTT0=
EXTT1=
EXTT2=
EXTT3=
EXTT4=
EXTT5=
EXTT6=
EXTT7=
PLAYORDER=
